<?xml version="1.0" standalone="no"?>
<!DOCTYPE svg PUBLIC "-//W3C//DTD SVG 20010904//EN"
 "http://www.w3.org/TR/2001/REC-SVG-20010904/DTD/svg10.dtd">
<svg version="1.0" xmlns="http://www.w3.org/2000/svg"
 width="512.000000pt" height="512.000000pt" viewBox="0 0 512.000000 512.000000"
 preserveAspectRatio="xMidYMid meet" >
<circle cx="256" cy="240" r="180" fill="white"/>
<g transform="translate(0.000000,512.000000) scale(0.100000,-0.100000)"
fill="#000000" stroke="none">
<path style="fill:rgb(212,32,32); fill-rule:nonzero;" d="M2400 5114 c-538 -50 -996 -260 -1366 -629 -507 -506 -727 -1197
-593 -1866 70 -354 238 -703 477 -993 93 -114 1579 -1602 1614 -1617 21 -9 35
-9 56 0 35 15 1522 1503 1614 1617 193 234 346 519 428 795 204 687 48 1385
-435 1947 -338 393 -801 649 -1315 727 -104 15 -393 27 -480 19z m462 -664
c305 -64 544 -195 769 -419 225 -226 353 -461 421 -775 32 -146 32 -446 0
-592 -68 -314 -196 -549 -421 -775 -226 -225 -461 -353 -775 -421 -146 -32
-446 -32 -592 0 -207 45 -401 128 -574 245 -110 75 -313 282 -389 396 -115
173 -189 349 -233 555 -32 146 -32 446 0 592 68 314 196 549 421 775 250 250
532 390 881 439 107 15 381 4 492 -20z"/>
<path style="fill:rgb(212,32,32); fill-rule:nonzero;" d="M2204 3828 c-39 -18 -44 -49 -44 -263 l0 -205 -205 0 c-217 0 -245
-5 -264 -47 -15 -33 -15 -673 0 -706 19 -42 47 -47 264 -47 l205 0 0 -205 c0
-217 5 -245 47 -264 33 -15 673 -15 706 0 42 19 47 47 47 264 l0 205 205 0
c217 0 245 5 264 47 7 16 11 133 11 353 0 220 -4 337 -11 353 -19 42 -47 47
-264 47 l-205 0 0 205 c0 217 -5 245 -47 264 -32 15 -679 14 -709 -1z"/>
</g>
</svg>
