<?xml version="1.0" standalone="no"?>
<!DOCTYPE svg PUBLIC "-//W3C//DTD SVG 20010904//EN"
 "http://www.w3.org/TR/2001/REC-SVG-20010904/DTD/svg10.dtd">
<svg version="1.0" xmlns="http://www.w3.org/2000/svg"
 width="500.000000pt" height="500.000000pt" viewBox="0 0 500.000000 500.000000"
 preserveAspectRatio="xMidYMid meet">
<circle cx="250" cy="240" r="165" fill="white"/>
<g transform="translate(0.000000,500.000000) scale(0.100000,-0.100000)"
fill="#000000" stroke="none">
<path style="fill:rgb(255, 215, 0); fill-rule:nonzero;" d="M2285 4749 c-464 -62 -874 -275 -1170 -606 -227 -254 -380 -559 -451
-898 -25 -117 -27 -152 -28 -340 -1 -178 3 -229 22 -335 69 -377 255 -732 526
-1003 248 -249 597 -438 926 -502 150 -29 157 -32 188 -78 16 -23 67 -111 113
-194 46 -84 86 -153 89 -153 3 0 34 53 69 118 88 162 131 233 154 259 13 15
40 25 91 33 173 28 344 84 508 165 587 291 979 859 1039 1507 13 139 6 338
-16 470 -64 389 -251 748 -536 1030 -240 237 -570 419 -892 493 -180 41 -466
57 -632 34z m487 -479 c381 -78 716 -311 926 -645 204 -326 259 -752 146
-1142 -14 -49 -52 -142 -84 -208 -194 -391 -552 -670 -980 -762 -122 -26 -440
-26 -559 1 -501 110 -896 460 -1056 938 -50 150 -68 268 -68 438 0 239 45 429
154 641 222 431 634 708 1134 763 79 8 291 -5 387 -24z"/>
<path d="M1643 3553 c2 -182 7 -291 15 -315 7 -20 31 -64 53 -97 43 -65 131
-132 200 -152 l39 -12 0 -239 0 -238 -50 0 c-41 0 -56 -5 -75 -25 l-25 -24 0
-239 0 -240 28 -53 c20 -39 41 -62 77 -84 43 -27 57 -30 125 -30 68 0 82 3
126 30 30 19 60 49 79 79 l30 49 3 239 3 238 -30 30 c-25 25 -37 30 -80 30
l-51 0 0 240 c0 185 3 240 13 240 25 0 133 59 174 94 27 24 56 65 80 113 l38
77 3 283 3 283 -75 0 -76 0 0 -235 c0 -129 -5 -256 -11 -284 -13 -64 -58 -125
-109 -151 l-40 -20 0 345 0 345 -80 0 -80 0 0 -345 0 -346 -28 15 c-43 22 -99
90 -111 133 -6 22 -11 143 -11 291 l0 252 -81 0 -80 0 4 -277z m467 -1296 c0
-96 -11 -141 -42 -174 -21 -23 -78 -53 -99 -53 -5 0 -9 70 -9 155 l0 155 75 0
75 0 0 -83z"/>
<path d="M2876 3814 c-174 -55 -296 -245 -296 -457 1 -189 103 -366 250 -434
l60 -27 0 -198 0 -198 -45 0 c-55 0 -90 -15 -104 -47 -17 -36 -14 -447 3 -496
22 -59 64 -107 120 -133 130 -61 276 -3 325 129 7 17 11 123 11 263 l0 235
-25 24 c-19 20 -34 25 -75 25 l-50 0 0 198 0 198 53 24 c191 87 297 338 238
569 -11 46 -33 104 -48 130 -94 161 -268 243 -417 195z m137 -155 l39 -10 -4
-177 c-3 -172 -4 -178 -30 -224 -42 -71 -114 -118 -180 -118 -26 0 -32 7 -59
64 -69 148 -35 347 76 431 55 42 97 51 158 34z m27 -1425 c0 -123 -14 -153
-84 -185 -68 -31 -66 -35 -66 136 l0 155 75 0 75 0 0 -106z"/>
</g>
</svg>
