<?xml version="1.0" standalone="no"?>
<!DOCTYPE svg PUBLIC "-//W3C//DTD SVG 20010904//EN"
 "http://www.w3.org/TR/2001/REC-SVG-20010904/DTD/svg10.dtd">
<svg version="1.0" xmlns="http://www.w3.org/2000/svg"
 width="500.000000pt" height="500.000000pt" viewBox="0 0 500.000000 500.000000"
 preserveAspectRatio="xMidYMid meet">

<circle cx="250" cy="240" r="165" fill="white"/>
<g transform="translate(0.000000,500.000000) scale(0.100000,-0.100000)"
fill="#000000" stroke="none">
<path style="fill:rgb(42,169,224); fill-rule:nonzero;" d="M2295 4750 c-413 -44 -814 -238 -1115 -540 -505 -505 -678 -1238
-450 -1915 211 -629 757 -1109 1405 -1235 61 -12 119 -28 131 -35 12 -8 47
-60 79 -117 32 -57 79 -140 104 -185 25 -45 48 -83 51 -83 3 0 14 17 26 38 11
20 33 60 49 87 15 28 51 93 81 145 29 53 61 103 71 111 10 9 69 26 130 38 214
40 460 137 628 245 164 105 329 245 425 361 234 282 374 576 436 920 25 141
26 470 0 610 -139 775 -724 1378 -1484 1531 -142 28 -418 40 -567 24z m477
-480 c381 -78 716 -311 926 -645 204 -326 259 -752 146 -1142 -14 -49 -52
-142 -84 -208 -194 -391 -552 -670 -980 -762 -122 -26 -440 -26 -559 1 -501
110 -896 460 -1056 938 -50 150 -68 268 -68 438 0 239 45 429 154 641 222 431
634 708 1134 763 79 8 291 -5 387 -24z"/>
<path d="M1982 3730 c-12 -11 -25 -33 -29 -48 -3 -15 -18 -74 -33 -131 -25
-101 -27 -105 -58 -113 -58 -15 -62 -32 -62 -239 0 -202 1 -205 60 -227 25
-10 26 -12 98 -521 40 -281 77 -522 83 -535 6 -13 22 -29 36 -35 34 -15 812
-15 846 0 14 6 30 22 35 34 6 13 44 254 84 535 72 508 73 512 98 522 59 22 60
25 60 227 0 207 -4 224 -62 239 -31 8 -33 12 -58 113 -15 57 -30 116 -33 131
-4 15 -17 37 -29 48 -21 20 -33 20 -518 20 -485 0 -497 0 -518 -20z m942 -205
c9 -35 16 -69 16 -75 0 -7 -141 -10 -440 -10 -299 0 -440 3 -440 10 0 6 7 40
16 75 l16 65 408 0 408 0 16 -65z m116 -320 l0 -75 -540 0 -540 0 0 75 0 75
540 0 540 0 0 -75z m-95 -307 c-3 -40 -9 -76 -11 -80 -7 -10 -861 -10 -868 0
-2 4 -8 40 -11 80 l-8 72 453 0 453 0 -8 -72z m-404 -248 c10 0 37 -16 59 -36
69 -62 71 -157 6 -223 -35 -34 -39 -36 -106 -36 -67 0 -71 2 -106 36 -63 63
-63 154 -1 216 33 33 87 55 115 47 8 -2 22 -4 33 -4z m-327 -8 c-35 -23 -42
-198 -11 -261 l15 -31 -39 0 c-45 0 -41 -8 -63 155 -20 155 -24 145 48 145 34
0 56 -4 50 -8z m688 1 c-6 -2 -10 -9 -6 -14 3 -5 -2 -60 -11 -122 -23 -167
-19 -157 -65 -157 l-41 0 18 33 c24 45 25 189 1 235 l-16 32 66 -1 c37 0 61
-3 54 -6z m-67 -510 c-3 -32 -9 -68 -12 -80 l-5 -23 -318 0 -318 0 -5 23 c-3
12 -9 48 -12 80 l-7 57 342 0 342 0 -7 -57z"/>
</g>
</svg>
